<svg width="364" height="292" viewBox="0 0 364 292" fill="none" xmlns="http://www.w3.org/2000/svg">
<g clip-path="url(#clip0_114_666)">
<rect x="3.33008" y="4.48999" width="10" height="10" rx="5" fill="white"/>
<circle cx="8.33008" cy="9.48999" r="4" stroke="#5E56EF" stroke-width="2"/>
<path d="M8.33008 14.49V30.49" stroke="#E7E7EF" stroke-width="2"/>
<rect x="21.8301" y="0.98999" width="142" height="29" rx="14.5" fill="#F2F3FE"/>
<rect x="21.8301" y="0.98999" width="142" height="29" rx="14.5" stroke="#E5E7FA"/>
<path d="M44.3301 15.49C44.3301 15.6113 44.3007 15.7308 44.2445 15.8382C44.1882 15.9456 44.1067 16.0378 44.007 16.1069L40.757 18.3569C40.6444 18.4348 40.5127 18.4804 40.3761 18.4888C40.2394 18.4972 40.1031 18.468 39.9819 18.4045C39.8607 18.3409 39.7591 18.2454 39.6883 18.1283C39.6175 18.0112 39.58 17.8769 39.5801 17.74V13.24C39.58 13.1031 39.6175 12.9688 39.6883 12.8517C39.7591 12.7346 39.8607 12.6391 39.9819 12.5755C40.1031 12.512 40.2394 12.4828 40.3761 12.4912C40.5127 12.4996 40.6444 12.5452 40.757 12.6231L44.007 14.8731C44.1067 14.9421 44.1882 15.0343 44.2445 15.1418C44.3007 15.2492 44.3301 15.3687 44.3301 15.49ZM48.0801 15.49C48.0801 16.825 47.6842 18.1301 46.9425 19.2401C46.2008 20.3501 45.1466 21.2153 43.9132 21.7262C42.6798 22.2371 41.3226 22.3707 40.0132 22.1103C38.7038 21.8498 37.5011 21.207 36.5571 20.263C35.6131 19.319 34.9702 18.1162 34.7098 16.8068C34.4493 15.4975 34.583 14.1403 35.0939 12.9069C35.6048 11.6735 36.47 10.6193 37.58 9.87757C38.69 9.13587 39.9951 8.73999 41.3301 8.73999C43.1197 8.74198 44.8354 9.45377 46.1009 10.7192C47.3663 11.9847 48.0781 13.7004 48.0801 15.49ZM46.5801 15.49C46.5801 14.4516 46.2722 13.4366 45.6953 12.5732C45.1184 11.7099 44.2985 11.037 43.3392 10.6396C42.3799 10.2423 41.3243 10.1383 40.3059 10.3409C39.2875 10.5434 38.352 11.0435 37.6178 11.7777C36.8835 12.5119 36.3835 13.4474 36.181 14.4658C35.9784 15.4842 36.0824 16.5398 36.4797 17.4991C36.8771 18.4584 37.55 19.2783 38.4133 19.8552C39.2767 20.4321 40.2917 20.74 41.3301 20.74C42.722 20.7385 44.0565 20.1849 45.0407 19.2007C46.025 18.2164 46.5786 16.8819 46.5801 15.49Z" fill="#5E56EF"/>
<path d="M53.9181 13.098C53.9181 11.362 55.3181 10.186 57.4041 10.186C59.3361 10.186 60.5821 11.264 60.6941 13.014H59.3081C59.2381 12.006 58.5241 11.418 57.3901 11.418C56.1161 11.418 55.2901 12.062 55.2901 13.056C55.2901 13.868 55.7521 14.358 56.7041 14.582L58.3701 14.974C60.0221 15.352 60.8621 16.248 60.8621 17.676C60.8621 19.496 59.4481 20.658 57.2921 20.658C55.2341 20.658 53.8621 19.58 53.7781 17.844H55.1781C55.2061 18.81 56.0181 19.426 57.2921 19.426C58.6361 19.426 59.4901 18.796 59.4901 17.788C59.4901 16.99 59.0561 16.486 58.0901 16.262L56.4241 15.884C54.7721 15.506 53.9181 14.554 53.9181 13.098ZM62.0822 23.556V13.644H63.2722L63.3702 14.876C63.8322 13.938 64.7562 13.448 65.8482 13.448C67.8082 13.448 69.0262 14.918 69.0262 17.018C69.0262 19.104 67.8782 20.672 65.8482 20.672C64.7562 20.672 63.8462 20.21 63.3982 19.37V23.556H62.0822ZM63.4122 17.074C63.4122 18.474 64.2242 19.482 65.5682 19.482C66.9122 19.482 67.7102 18.474 67.7102 17.074C67.7102 15.66 66.9122 14.652 65.5682 14.652C64.2242 14.652 63.4122 15.646 63.4122 17.074ZM73.1507 20.658C71.1347 20.658 69.7487 19.202 69.7487 17.074C69.7487 14.932 71.1067 13.448 73.0947 13.448C75.0407 13.448 76.3147 14.792 76.3147 16.822V17.312L71.0227 17.326C71.1207 18.768 71.8767 19.566 73.1787 19.566C74.2007 19.566 74.8727 19.146 75.0967 18.362H76.3287C75.9927 19.832 74.8447 20.658 73.1507 20.658ZM73.0947 14.554C71.9467 14.554 71.2187 15.24 71.0507 16.444H74.9987C74.9987 15.31 74.2567 14.554 73.0947 14.554ZM78.8486 20.49H77.5326V10.186H78.8486V20.49ZM81.8498 20.49H80.5338V10.186H81.8498V20.49ZM90.9752 13.588V14.792H90.3872C89.1412 14.792 88.3712 15.548 88.3712 16.864V20.49H87.0552V13.658H88.2872L88.3712 14.694C88.6512 13.98 89.3372 13.504 90.2752 13.504C90.5132 13.504 90.7092 13.532 90.9752 13.588ZM96.6615 13.644H97.9635V20.49H96.7875L96.6475 19.454C96.2555 20.168 95.3455 20.658 94.3375 20.658C92.7415 20.658 91.8455 19.58 91.8455 17.9V13.644H93.1615V17.466C93.1615 18.936 93.7915 19.496 94.7995 19.496C96.0035 19.496 96.6615 18.726 96.6615 17.256V13.644ZM100.909 20.49H99.5929V13.644H100.783L100.923 14.694C101.357 13.91 102.225 13.448 103.191 13.448C104.997 13.448 105.823 14.554 105.823 16.304V20.49H104.507V16.598C104.507 15.212 103.863 14.652 102.855 14.652C101.623 14.652 100.909 15.534 100.909 16.864V20.49ZM110.354 18.502H111.614C111.614 19.202 112.146 19.622 113.014 19.622C113.938 19.622 114.47 19.244 114.47 18.614C114.47 18.152 114.246 17.872 113.532 17.69L112.328 17.41C111.11 17.116 110.536 16.514 110.536 15.506C110.536 14.246 111.6 13.448 113.112 13.448C114.61 13.448 115.59 14.288 115.618 15.59H114.358C114.33 14.904 113.868 14.47 113.07 14.47C112.244 14.47 111.782 14.834 111.782 15.464C111.782 15.926 112.118 16.234 112.79 16.402L113.994 16.696C115.156 16.976 115.73 17.508 115.73 18.53C115.73 19.832 114.61 20.658 112.986 20.658C111.376 20.658 110.354 19.804 110.354 18.502ZM118.841 20.49H117.525V14.75H116.181V13.644H117.525V11.502H118.841V13.644H120.185V14.75H118.841V20.49ZM123.006 20.658C121.536 20.658 120.668 19.832 120.668 18.586C120.668 17.326 121.606 16.542 123.216 16.416L125.372 16.248V16.052C125.372 14.904 124.686 14.498 123.762 14.498C122.656 14.498 122.026 14.988 122.026 15.814H120.878C120.878 14.386 122.054 13.448 123.818 13.448C125.512 13.448 126.66 14.344 126.66 16.192V20.49H125.54L125.4 19.384C125.05 20.168 124.112 20.658 123.006 20.658ZM123.384 19.636C124.63 19.636 125.386 18.824 125.386 17.536V17.172L123.636 17.312C122.474 17.424 121.998 17.872 121.998 18.544C121.998 19.272 122.53 19.636 123.384 19.636ZM132.123 13.588V14.792H131.535C130.289 14.792 129.519 15.548 129.519 16.864V20.49H128.203V13.658H129.435L129.519 14.694C129.799 13.98 130.485 13.504 131.423 13.504C131.661 13.504 131.857 13.532 132.123 13.588ZM135.282 20.49H133.966V14.75H132.622V13.644H133.966V11.502H135.282V13.644H136.626V14.75H135.282V20.49ZM140.413 20.658C138.397 20.658 137.011 19.202 137.011 17.074C137.011 14.932 138.369 13.448 140.357 13.448C142.303 13.448 143.577 14.792 143.577 16.822V17.312L138.285 17.326C138.383 18.768 139.139 19.566 140.441 19.566C141.463 19.566 142.135 19.146 142.359 18.362H143.591C143.255 19.832 142.107 20.658 140.413 20.658ZM140.357 14.554C139.209 14.554 138.481 15.24 138.313 16.444H142.261C142.261 15.31 141.519 14.554 140.357 14.554ZM147.511 20.658C145.523 20.658 144.319 19.174 144.319 17.088C144.319 14.988 145.537 13.448 147.567 13.448C148.617 13.448 149.499 13.91 149.961 14.75V10.186H151.263V20.49H150.087L149.975 19.244C149.527 20.182 148.603 20.658 147.511 20.658ZM147.777 19.468C149.121 19.468 149.947 18.474 149.947 17.046C149.947 15.646 149.121 14.638 147.777 14.638C146.433 14.638 145.649 15.646 145.649 17.046C145.649 18.46 146.433 19.468 147.777 19.468Z" fill="#5E56EF"/>
<rect x="3.33008" y="50.49" width="10" height="10" rx="5" fill="white"/>
<circle cx="8.33008" cy="55.49" r="4" stroke="#5E56EF" stroke-width="2"/>
<path d="M8.33008 60.49V102.49" stroke="#E7E7EF" stroke-width="2"/>
<path d="M29.3301 46.99H436.33C440.472 46.99 443.83 50.3479 443.83 54.49V94.49C443.83 98.6321 440.472 101.99 436.33 101.99H29.3301C25.188 101.99 21.8301 98.6321 21.8301 94.49V54.49C21.8301 50.3479 25.1879 46.99 29.3301 46.99Z" fill="white"/>
<path d="M29.3301 46.99H436.33C440.472 46.99 443.83 50.3479 443.83 54.49V94.49C443.83 98.6321 440.472 101.99 436.33 101.99H29.3301C25.188 101.99 21.8301 98.6321 21.8301 94.49V54.49C21.8301 50.3479 25.1879 46.99 29.3301 46.99Z" stroke="#E7E7EF"/>
<rect x="37.3301" y="64.49" width="20" height="20" rx="4" fill="#5344E4"/>
<rect x="37.3301" y="64.49" width="20" height="20" rx="4" fill="url(#paint0_linear_114_666)" fill-opacity="0.2"/>
<path d="M50.2508 76.663L52.5153 78.9274L51.7675 79.6752L49.5031 77.4107C48.6889 78.0621 47.6563 78.4518 46.5332 78.4518C43.9064 78.4518 41.7745 76.3199 41.7745 73.6931C41.7745 71.0663 43.9064 68.9344 46.5332 68.9344C49.16 68.9344 51.2919 71.0663 51.2919 73.6931C51.2919 74.8162 50.9022 75.8488 50.2508 76.663ZM49.19 76.2707C49.8366 75.6043 50.2344 74.6954 50.2344 73.6931C50.2344 71.6482 48.5781 69.9919 46.5332 69.9919C44.4883 69.9919 42.832 71.6482 42.832 73.6931C42.832 75.7381 44.4883 77.3943 46.5332 77.3943C47.5355 77.3943 48.4444 76.9965 49.1107 76.3499L49.19 76.2707ZM47.156 71.6714C46.7888 71.8372 46.5332 72.2066 46.5332 72.6357C46.5332 73.2197 47.0067 73.6931 47.5907 73.6931C48.0198 73.6931 48.3892 73.4375 48.555 73.0703C48.6156 73.2672 48.6482 73.4764 48.6482 73.6931C48.6482 74.8612 47.7013 75.8081 46.5332 75.8081C45.3652 75.8081 44.4183 74.8612 44.4183 73.6931C44.4183 72.5251 45.3652 71.5782 46.5332 71.5782C46.75 71.5782 46.9591 71.6108 47.156 71.6714Z" fill="white"/>
<path d="M70.2421 80.49H68.6741V68.922H73.0421C75.5221 68.922 76.9941 70.234 76.9941 72.394C76.9941 73.994 76.1941 75.146 74.7541 75.61L77.1061 80.49H75.3621L73.2021 75.914H70.2421V80.49ZM70.2421 70.33V74.522H73.0581C74.5141 74.522 75.3461 73.738 75.3461 72.41C75.3461 71.066 74.4821 70.33 73.0421 70.33H70.2421ZM81.3803 80.682C79.0763 80.682 77.4923 79.018 77.4923 76.586C77.4923 74.138 79.0443 72.442 81.3163 72.442C83.5403 72.442 84.9963 73.978 84.9963 76.298V76.858L78.9483 76.874C79.0603 78.522 79.9243 79.434 81.4123 79.434C82.5803 79.434 83.3483 78.954 83.6043 78.058H85.0123C84.6283 79.738 83.3163 80.682 81.3803 80.682ZM81.3163 73.706C80.0043 73.706 79.1723 74.49 78.9803 75.866H83.4923C83.4923 74.57 82.6443 73.706 81.3163 73.706ZM85.7162 78.218H87.1562C87.1562 79.018 87.7642 79.498 88.7562 79.498C89.8122 79.498 90.4202 79.066 90.4202 78.346C90.4202 77.818 90.1642 77.498 89.3482 77.29L87.9722 76.97C86.5802 76.634 85.9242 75.946 85.9242 74.794C85.9242 73.354 87.1402 72.442 88.8682 72.442C90.5802 72.442 91.7002 73.402 91.7322 74.89H90.2922C90.2602 74.106 89.7322 73.61 88.8202 73.61C87.8762 73.61 87.3482 74.026 87.3482 74.746C87.3482 75.274 87.7322 75.626 88.5002 75.818L89.8762 76.154C91.2042 76.474 91.8602 77.082 91.8602 78.25C91.8602 79.738 90.5802 80.682 88.7242 80.682C86.8842 80.682 85.7162 79.706 85.7162 78.218ZM96.5841 80.682C94.2801 80.682 92.6961 79.018 92.6961 76.586C92.6961 74.138 94.2481 72.442 96.5201 72.442C98.7441 72.442 100.2 73.978 100.2 76.298V76.858L94.1521 76.874C94.2641 78.522 95.1281 79.434 96.6161 79.434C97.7841 79.434 98.5521 78.954 98.8081 78.058H100.216C99.8321 79.738 98.5201 80.682 96.5841 80.682ZM96.5201 73.706C95.2081 73.706 94.3761 74.49 94.1841 75.866H98.6961C98.6961 74.57 97.8481 73.706 96.5201 73.706ZM103.77 80.682C102.09 80.682 101.098 79.738 101.098 78.314C101.098 76.874 102.17 75.978 104.01 75.834L106.474 75.642V75.418C106.474 74.106 105.69 73.642 104.634 73.642C103.37 73.642 102.65 74.202 102.65 75.146H101.338C101.338 73.514 102.682 72.442 104.698 72.442C106.634 72.442 107.946 73.466 107.946 75.578V80.49H106.666L106.506 79.226C106.106 80.122 105.034 80.682 103.77 80.682ZM104.202 79.514C105.626 79.514 106.49 78.586 106.49 77.114V76.698L104.49 76.858C103.162 76.986 102.618 77.498 102.618 78.266C102.618 79.098 103.226 79.514 104.202 79.514ZM114.189 72.602V73.978H113.517C112.093 73.978 111.213 74.842 111.213 76.346V80.49H109.709V72.682H111.117L111.213 73.866C111.533 73.05 112.317 72.506 113.389 72.506C113.661 72.506 113.885 72.538 114.189 72.602ZM114.486 76.586C114.486 74.138 116.038 72.442 118.326 72.442C120.294 72.442 121.67 73.562 121.942 75.306H120.438C120.182 74.314 119.382 73.786 118.374 73.786C116.95 73.786 115.974 74.874 115.974 76.57C115.974 78.25 116.886 79.338 118.31 79.338C119.382 79.338 120.182 78.778 120.454 77.85H121.958C121.654 79.546 120.198 80.682 118.31 80.682C116.006 80.682 114.486 79.05 114.486 76.586ZM124.729 80.474H123.225V68.714H124.729V73.866C125.225 73.018 126.169 72.442 127.385 72.442C129.385 72.442 130.345 73.706 130.345 75.706V80.49H128.841V76.042C128.841 74.458 128.089 73.818 126.969 73.818C125.513 73.818 124.729 74.874 124.729 76.218V80.474ZM136.899 80.49H135.267L139.491 68.922H141.235L145.475 80.49H143.827L142.787 77.61H137.923L136.899 80.49ZM140.163 71.418L138.403 76.25H142.323L140.547 71.418C140.467 71.194 140.387 70.922 140.355 70.746C140.323 70.906 140.243 71.178 140.163 71.418ZM145.8 76.378C145.8 74.17 147.224 72.442 149.496 72.442C150.76 72.442 151.736 73.018 152.232 73.994L152.344 72.666H153.688V80.17C153.688 82.634 152.168 84.202 149.768 84.202C147.64 84.202 146.184 83.002 145.896 81.018H147.4C147.592 82.17 148.456 82.842 149.768 82.842C151.24 82.842 152.2 81.882 152.2 80.394V78.826C151.688 79.738 150.664 80.282 149.432 80.282C147.208 80.282 145.8 78.57 145.8 76.378ZM147.304 76.346C147.304 77.818 148.216 78.97 149.688 78.97C151.208 78.97 152.136 77.882 152.136 76.346C152.136 74.842 151.24 73.754 149.704 73.754C148.2 73.754 147.304 74.906 147.304 76.346ZM158.915 80.682C156.611 80.682 155.027 79.018 155.027 76.586C155.027 74.138 156.579 72.442 158.851 72.442C161.075 72.442 162.531 73.978 162.531 76.298V76.858L156.483 76.874C156.595 78.522 157.459 79.434 158.947 79.434C160.115 79.434 160.883 78.954 161.139 78.058H162.547C162.163 79.738 160.851 80.682 158.915 80.682ZM158.851 73.706C157.539 73.706 156.707 74.49 156.515 75.866H161.027C161.027 74.57 160.179 73.706 158.851 73.706ZM165.395 80.49H163.891V72.666H165.251L165.411 73.866C165.907 72.97 166.899 72.442 168.003 72.442C170.067 72.442 171.011 73.706 171.011 75.706V80.49H169.507V76.042C169.507 74.458 168.771 73.818 167.619 73.818C166.211 73.818 165.395 74.826 165.395 76.346V80.49ZM174.982 80.49H173.478V73.93H171.942V72.666H173.478V70.218H174.982V72.666H176.518V73.93H174.982V80.49Z" fill="black"/>
<path d="M193.474 80.666C190.178 80.666 187.986 78.298 187.986 74.714C187.986 71.146 190.242 68.73 193.554 68.73C196.162 68.73 198.162 70.282 198.594 72.65H196.914C196.482 71.146 195.186 70.234 193.506 70.234C191.17 70.234 189.634 71.994 189.634 74.698C189.634 77.402 191.17 79.162 193.506 79.162C195.202 79.162 196.546 78.25 196.978 76.826H198.642C198.146 79.13 196.082 80.666 193.474 80.666ZM199.477 76.57C199.477 74.154 201.205 72.458 203.557 72.458C205.893 72.458 207.621 74.154 207.621 76.57C207.621 78.986 205.893 80.682 203.557 80.682C201.205 80.682 199.477 78.986 199.477 76.57ZM200.997 76.57C200.997 78.202 202.037 79.338 203.557 79.338C205.061 79.338 206.117 78.202 206.117 76.57C206.117 74.938 205.061 73.802 203.557 73.802C202.037 73.802 200.997 74.938 200.997 76.57ZM210.502 80.49H208.998V68.714H210.502V80.49ZM213.932 80.49H212.428V68.714H213.932V80.49ZM219.202 80.682C216.898 80.682 215.314 79.018 215.314 76.586C215.314 74.138 216.866 72.442 219.138 72.442C221.362 72.442 222.818 73.978 222.818 76.298V76.858L216.77 76.874C216.882 78.522 217.746 79.434 219.234 79.434C220.402 79.434 221.17 78.954 221.426 78.058H222.834C222.45 79.738 221.138 80.682 219.202 80.682ZM219.138 73.706C217.826 73.706 216.994 74.49 216.802 75.866H221.314C221.314 74.57 220.466 73.706 219.138 73.706ZM223.665 76.586C223.665 74.138 225.217 72.442 227.505 72.442C229.473 72.442 230.849 73.562 231.121 75.306H229.617C229.361 74.314 228.561 73.786 227.553 73.786C226.129 73.786 225.153 74.874 225.153 76.57C225.153 78.25 226.065 79.338 227.489 79.338C228.561 79.338 229.361 78.778 229.633 77.85H231.137C230.833 79.546 229.377 80.682 227.489 80.682C225.185 80.682 223.665 79.05 223.665 76.586ZM234.612 80.49H233.108V73.93H231.572V72.666H233.108V70.218H234.612V72.666H236.148V73.93H234.612V80.49ZM237.914 70.81C237.37 70.81 236.922 70.362 236.922 69.818C236.922 69.258 237.37 68.826 237.914 68.826C238.458 68.826 238.906 69.258 238.906 69.818C238.906 70.362 238.458 70.81 237.914 70.81ZM237.178 80.49V72.666H238.682V80.49H237.178ZM242.05 80.49H240.546V72.666H241.906L242.066 73.866C242.562 72.97 243.554 72.442 244.658 72.442C246.722 72.442 247.666 73.706 247.666 75.706V80.49H246.162V76.042C246.162 74.458 245.426 73.818 244.274 73.818C242.866 73.818 242.05 74.826 242.05 76.346V80.49ZM248.933 76.378C248.933 74.17 250.357 72.442 252.629 72.442C253.893 72.442 254.869 73.018 255.365 73.994L255.477 72.666H256.821V80.17C256.821 82.634 255.301 84.202 252.901 84.202C250.773 84.202 249.317 83.002 249.029 81.018H250.533C250.725 82.17 251.589 82.842 252.901 82.842C254.373 82.842 255.333 81.882 255.333 80.394V78.826C254.821 79.738 253.797 80.282 252.565 80.282C250.341 80.282 248.933 78.57 248.933 76.378ZM250.437 76.346C250.437 77.818 251.349 78.97 252.821 78.97C254.341 78.97 255.269 77.882 255.269 76.346C255.269 74.842 254.373 73.754 252.837 73.754C251.333 73.754 250.437 74.906 250.437 76.346ZM263.462 70.81C262.918 70.81 262.47 70.362 262.47 69.818C262.47 69.258 262.918 68.826 263.462 68.826C264.006 68.826 264.454 69.258 264.454 69.818C264.454 70.362 264.006 70.81 263.462 70.81ZM262.726 80.49V72.666H264.23V80.49H262.726ZM267.598 80.49H266.094V72.666H267.454L267.614 73.866C268.11 72.97 269.102 72.442 270.206 72.442C272.27 72.442 273.214 73.706 273.214 75.706V80.49H271.71V76.042C271.71 74.458 270.974 73.818 269.822 73.818C268.414 73.818 267.598 74.826 267.598 76.346V80.49ZM274.145 72.666H275.297V71.418C275.297 69.498 276.353 68.714 277.777 68.714C278.065 68.714 278.401 68.73 278.705 68.778V70.074H278.033C277.057 70.074 276.801 70.57 276.801 71.418V72.666H278.657V73.93H276.801V80.49H275.297V73.93H274.145V72.666ZM278.989 76.57C278.989 74.154 280.717 72.458 283.069 72.458C285.405 72.458 287.133 74.154 287.133 76.57C287.133 78.986 285.405 80.682 283.069 80.682C280.717 80.682 278.989 78.986 278.989 76.57ZM280.509 76.57C280.509 78.202 281.549 79.338 283.069 79.338C284.573 79.338 285.629 78.202 285.629 76.57C285.629 74.938 284.573 73.802 283.069 73.802C281.549 73.802 280.509 74.938 280.509 76.57ZM292.957 72.602V73.978H292.285C290.861 73.978 289.981 74.842 289.981 76.346V80.49H288.477V72.682H289.885L289.981 73.866C290.301 73.05 291.085 72.506 292.157 72.506C292.429 72.506 292.653 72.538 292.957 72.602ZM295.552 80.49H294.048V72.666H295.392L295.536 73.69C295.936 72.954 296.768 72.442 297.872 72.442C299.088 72.442 299.952 73.05 300.352 74.026C300.72 73.05 301.664 72.442 302.88 72.442C304.672 72.442 305.76 73.562 305.76 75.37V80.49H304.288V75.738C304.288 74.506 303.6 73.802 302.544 73.802C301.408 73.802 300.656 74.602 300.656 75.85V80.49H299.168V75.722C299.168 74.49 298.496 73.818 297.44 73.818C296.304 73.818 295.552 74.602 295.552 75.85V80.49ZM309.813 80.682C308.133 80.682 307.141 79.738 307.141 78.314C307.141 76.874 308.213 75.978 310.053 75.834L312.517 75.642V75.418C312.517 74.106 311.733 73.642 310.677 73.642C309.413 73.642 308.693 74.202 308.693 75.146H307.381C307.381 73.514 308.725 72.442 310.741 72.442C312.677 72.442 313.989 73.466 313.989 75.578V80.49H312.709L312.549 79.226C312.149 80.122 311.077 80.682 309.813 80.682ZM310.245 79.514C311.669 79.514 312.533 78.586 312.533 77.114V76.698L310.533 76.858C309.205 76.986 308.661 77.498 308.661 78.266C308.661 79.098 309.269 79.514 310.245 79.514ZM317.835 80.49H316.331V73.93H314.795V72.666H316.331V70.218H317.835V72.666H319.371V73.93H317.835V80.49ZM321.137 70.81C320.593 70.81 320.145 70.362 320.145 69.818C320.145 69.258 320.593 68.826 321.137 68.826C321.681 68.826 322.129 69.258 322.129 69.818C322.129 70.362 321.681 70.81 321.137 70.81ZM320.401 80.49V72.666H321.905V80.49H320.401ZM323.256 76.57C323.256 74.154 324.984 72.458 327.336 72.458C329.672 72.458 331.4 74.154 331.4 76.57C331.4 78.986 329.672 80.682 327.336 80.682C324.984 80.682 323.256 78.986 323.256 76.57ZM324.776 76.57C324.776 78.202 325.816 79.338 327.336 79.338C328.84 79.338 329.896 78.202 329.896 76.57C329.896 74.938 328.84 73.802 327.336 73.802C325.816 73.802 324.776 74.938 324.776 76.57ZM334.249 80.49H332.745V72.666H334.105L334.265 73.866C334.761 72.97 335.753 72.442 336.857 72.442C338.921 72.442 339.865 73.706 339.865 75.706V80.49H338.361V76.042C338.361 74.458 337.625 73.818 336.473 73.818C335.065 73.818 334.249 74.826 334.249 76.346V80.49ZM342.748 80.682C342.124 80.682 341.596 80.17 341.596 79.562C341.596 78.938 342.124 78.426 342.748 78.426C343.356 78.426 343.884 78.938 343.884 79.562C343.884 80.17 343.356 80.682 342.748 80.682ZM346.85 80.682C346.226 80.682 345.698 80.17 345.698 79.562C345.698 78.938 346.226 78.426 346.85 78.426C347.458 78.426 347.986 78.938 347.986 79.562C347.986 80.17 347.458 80.682 346.85 80.682ZM350.952 80.682C350.328 80.682 349.8 80.17 349.8 79.562C349.8 78.938 350.328 78.426 350.952 78.426C351.56 78.426 352.088 78.938 352.088 79.562C352.088 80.17 351.56 80.682 350.952 80.682Z" fill="#8E8EA8"/>
<rect x="3.33008" y="122.49" width="10" height="10" rx="5" fill="white"/>
<circle cx="8.33008" cy="127.49" r="4" stroke="#5E56EF" stroke-width="2"/>
<path d="M8.33008 132.49V174.49" stroke="#E7E7EF" stroke-width="2"/>
<path d="M29.3301 118.99H436.33C440.472 118.99 443.83 122.348 443.83 126.49V166.49C443.83 170.632 440.472 173.99 436.33 173.99H29.3301C25.188 173.99 21.8301 170.632 21.8301 166.49V126.49C21.8301 122.348 25.1879 118.99 29.3301 118.99Z" fill="white"/>
<path d="M29.3301 118.99H436.33C440.472 118.99 443.83 122.348 443.83 126.49V166.49C443.83 170.632 440.472 173.99 436.33 173.99H29.3301C25.188 173.99 21.8301 170.632 21.8301 166.49V126.49C21.8301 122.348 25.1879 118.99 29.3301 118.99Z" stroke="#E7E7EF"/>
<rect x="37.3301" y="136.49" width="20" height="20" rx="4" fill="#FB923C"/>
<path d="M53.6582 144.615C53.6586 144.55 53.65 144.485 53.6324 144.422L52.791 141.481C52.7205 141.237 52.5728 141.022 52.37 140.869C52.1672 140.715 51.9202 140.632 51.666 140.631H42.9941C42.7399 140.632 42.493 140.715 42.2902 140.869C42.0874 141.022 41.9397 141.237 41.8691 141.481L41.0289 144.422C41.011 144.485 41.0019 144.55 41.002 144.615V145.552C41.0019 145.932 41.0859 146.308 41.248 146.651C41.4101 146.995 41.6462 147.298 41.9395 147.54V151.646C41.9395 151.833 42.0135 152.012 42.1454 152.143C42.2773 152.275 42.4561 152.349 42.6426 152.349H52.0176C52.2041 152.349 52.3829 152.275 52.5148 152.143C52.6466 152.012 52.7207 151.833 52.7207 151.646V147.54C53.0139 147.298 53.2501 146.995 53.4122 146.651C53.5742 146.308 53.6583 145.932 53.6582 145.552V144.615ZM43.1729 142.037H51.4902L52.0258 143.912H42.6373L43.1729 142.037ZM48.5049 145.318V145.552C48.5049 145.863 48.3814 146.161 48.1616 146.381C47.9419 146.601 47.6438 146.724 47.333 146.724C47.0222 146.724 46.7241 146.601 46.5044 146.381C46.2846 146.161 46.1611 145.863 46.1611 145.552V145.318H48.5049ZM42.9355 146.532C42.7734 146.425 42.6404 146.279 42.5483 146.109C42.4563 145.938 42.4081 145.747 42.4082 145.552V145.318H44.752V145.552C44.752 145.863 44.6285 146.161 44.4087 146.381C44.1889 146.601 43.8909 146.724 43.5801 146.724C43.3952 146.724 43.2129 146.68 43.0486 146.595C43.0131 146.571 42.9752 146.549 42.9355 146.532ZM51.3145 150.943H43.3457V148.119C43.423 148.127 43.501 148.131 43.5801 148.131C43.9315 148.131 44.2792 148.059 44.6017 147.919C44.9242 147.78 45.2146 147.575 45.4551 147.319C45.6956 147.575 45.986 147.779 46.3085 147.919C46.631 148.059 46.9787 148.131 47.3301 148.131C47.6815 148.131 48.0291 148.059 48.3516 147.919C48.6741 147.779 48.9646 147.575 49.2051 147.319C49.4455 147.575 49.736 147.78 50.0585 147.919C50.381 148.059 50.7287 148.131 51.0801 148.131C51.1592 148.131 51.2371 148.127 51.3145 148.119V150.943ZM52.252 145.552C52.252 145.747 52.2039 145.938 52.1118 146.109C52.0198 146.279 51.8867 146.425 51.7246 146.532C51.686 146.549 51.6491 146.571 51.6145 146.595C51.4358 146.687 51.2366 146.731 51.036 146.724C50.8355 146.716 50.6402 146.657 50.4689 146.552C50.2976 146.448 50.1561 146.301 50.0579 146.126C49.9598 145.951 49.9082 145.753 49.9082 145.552V145.318H52.252V145.552Z" fill="white"/>
<path d="M70.2101 152.49H68.6741V140.922H70.2101L74.1941 150.65L78.1781 140.922H79.7461V152.49H78.2101V147.914C78.2101 145.754 78.2261 144.97 78.3061 144.154L74.9301 152.49H73.4581L70.0981 144.186C70.1781 144.746 70.2101 145.93 70.2101 147.546V152.49ZM84.1517 152.682C82.4717 152.682 81.4797 151.738 81.4797 150.314C81.4797 148.874 82.5517 147.978 84.3917 147.834L86.8557 147.642V147.418C86.8557 146.106 86.0717 145.642 85.0157 145.642C83.7517 145.642 83.0317 146.202 83.0317 147.146H81.7197C81.7197 145.514 83.0637 144.442 85.0797 144.442C87.0157 144.442 88.3277 145.466 88.3277 147.578V152.49H87.0477L86.8877 151.226C86.4877 152.122 85.4157 152.682 84.1517 152.682ZM84.5837 151.514C86.0077 151.514 86.8717 150.586 86.8717 149.114V148.698L84.8717 148.858C83.5437 148.986 82.9997 149.498 82.9997 150.266C82.9997 151.098 83.6077 151.514 84.5837 151.514ZM94.5706 144.602V145.978H93.8986C92.4746 145.978 91.5946 146.842 91.5946 148.346V152.49H90.0906V144.682H91.4986L91.5946 145.866C91.9146 145.05 92.6986 144.506 93.7706 144.506C94.0426 144.506 94.2666 144.538 94.5706 144.602ZM97.1972 152.49H95.6932V140.714H97.1972V148.346L100.669 144.666H102.557L99.5652 147.786L102.541 152.49H100.813L98.5252 148.874L97.1972 150.266V152.49ZM106.545 152.682C104.241 152.682 102.657 151.018 102.657 148.586C102.657 146.138 104.209 144.442 106.481 144.442C108.705 144.442 110.161 145.978 110.161 148.298V148.858L104.113 148.874C104.225 150.522 105.089 151.434 106.577 151.434C107.745 151.434 108.513 150.954 108.769 150.058H110.177C109.793 151.738 108.481 152.682 106.545 152.682ZM106.481 145.706C105.169 145.706 104.337 146.49 104.145 147.866H108.657C108.657 146.57 107.809 145.706 106.481 145.706ZM113.651 152.49H112.147V145.93H110.611V144.666H112.147V142.218H113.651V144.666H115.187V145.93H113.651V152.49ZM116.953 142.81C116.409 142.81 115.961 142.362 115.961 141.818C115.961 141.258 116.409 140.826 116.953 140.826C117.497 140.826 117.945 141.258 117.945 141.818C117.945 142.362 117.497 142.81 116.953 142.81ZM116.217 152.49V144.666H117.721V152.49H116.217ZM121.088 152.49H119.584V144.666H120.944L121.104 145.866C121.6 144.97 122.592 144.442 123.696 144.442C125.76 144.442 126.704 145.706 126.704 147.706V152.49H125.2V148.042C125.2 146.458 124.464 145.818 123.312 145.818C121.904 145.818 121.088 146.826 121.088 148.346V152.49ZM127.971 148.378C127.971 146.17 129.395 144.442 131.667 144.442C132.931 144.442 133.907 145.018 134.403 145.994L134.515 144.666H135.859V152.17C135.859 154.634 134.339 156.202 131.939 156.202C129.811 156.202 128.355 155.002 128.067 153.018H129.571C129.763 154.17 130.627 154.842 131.939 154.842C133.411 154.842 134.371 153.882 134.371 152.394V150.826C133.859 151.738 132.835 152.282 131.603 152.282C129.379 152.282 127.971 150.57 127.971 148.378ZM129.475 148.346C129.475 149.818 130.387 150.97 131.859 150.97C133.379 150.97 134.307 149.882 134.307 148.346C134.307 146.842 133.411 145.754 131.875 145.754C130.371 145.754 129.475 146.906 129.475 148.346ZM142.501 152.49H140.869L145.093 140.922H146.837L151.077 152.49H149.429L148.389 149.61H143.525L142.501 152.49ZM145.765 143.418L144.005 148.25H147.925L146.149 143.418C146.069 143.194 145.989 142.922 145.957 142.746C145.925 142.906 145.845 143.178 145.765 143.418ZM151.402 148.378C151.402 146.17 152.826 144.442 155.098 144.442C156.362 144.442 157.338 145.018 157.834 145.994L157.946 144.666H159.29V152.17C159.29 154.634 157.77 156.202 155.37 156.202C153.242 156.202 151.786 155.002 151.498 153.018H153.002C153.194 154.17 154.058 154.842 155.37 154.842C156.842 154.842 157.802 153.882 157.802 152.394V150.826C157.29 151.738 156.266 152.282 155.034 152.282C152.81 152.282 151.402 150.57 151.402 148.378ZM152.906 148.346C152.906 149.818 153.818 150.97 155.29 150.97C156.81 150.97 157.738 149.882 157.738 148.346C157.738 146.842 156.842 145.754 155.306 145.754C153.802 145.754 152.906 146.906 152.906 148.346ZM164.517 152.682C162.213 152.682 160.629 151.018 160.629 148.586C160.629 146.138 162.181 144.442 164.453 144.442C166.677 144.442 168.133 145.978 168.133 148.298V148.858L162.085 148.874C162.197 150.522 163.061 151.434 164.549 151.434C165.717 151.434 166.485 150.954 166.741 150.058H168.149C167.765 151.738 166.453 152.682 164.517 152.682ZM164.453 145.706C163.141 145.706 162.309 146.49 162.117 147.866H166.629C166.629 146.57 165.781 145.706 164.453 145.706ZM170.996 152.49H169.492V144.666H170.852L171.012 145.866C171.508 144.97 172.5 144.442 173.604 144.442C175.668 144.442 176.612 145.706 176.612 147.706V152.49H175.108V148.042C175.108 146.458 174.372 145.818 173.22 145.818C171.812 145.818 170.996 146.826 170.996 148.346V152.49ZM180.584 152.49H179.08V145.93H177.544V144.666H179.08V142.218H180.584V144.666H182.12V145.93H180.584V152.49Z" fill="black"/>
<path d="M195.154 152.49H193.522L197.746 140.922H199.49L203.73 152.49H202.082L201.042 149.61H196.178L195.154 152.49ZM198.418 143.418L196.658 148.25H200.578L198.802 143.418C198.722 143.194 198.642 142.922 198.61 142.746C198.578 142.906 198.498 143.178 198.418 143.418ZM206.196 152.49H204.692V144.666H206.052L206.212 145.866C206.708 144.97 207.7 144.442 208.804 144.442C210.868 144.442 211.812 145.706 211.812 147.706V152.49H210.308V148.042C210.308 146.458 209.572 145.818 208.42 145.818C207.012 145.818 206.196 146.826 206.196 148.346V152.49ZM215.863 152.682C214.183 152.682 213.191 151.738 213.191 150.314C213.191 148.874 214.263 147.978 216.103 147.834L218.567 147.642V147.418C218.567 146.106 217.783 145.642 216.727 145.642C215.463 145.642 214.743 146.202 214.743 147.146H213.431C213.431 145.514 214.775 144.442 216.791 144.442C218.727 144.442 220.039 145.466 220.039 147.578V152.49H218.759L218.599 151.226C218.199 152.122 217.127 152.682 215.863 152.682ZM216.295 151.514C217.719 151.514 218.583 150.586 218.583 149.114V148.698L216.583 148.858C215.255 148.986 214.711 149.498 214.711 150.266C214.711 151.098 215.319 151.514 216.295 151.514ZM223.338 152.49H221.834V140.714H223.338V152.49ZM224.48 155.994V154.762H225.488C226.208 154.762 226.784 154.65 227.152 153.658L227.424 152.906L224.272 144.666H225.856L228.128 150.97L230.448 144.666H232L228.304 154.25C227.776 155.594 226.992 156.154 225.792 156.154C225.296 156.154 224.88 156.09 224.48 155.994ZM238.497 152.49H232.401V151.274L236.625 145.93H232.401V144.666H238.497V145.898L234.241 151.226H238.497V152.49ZM240.609 142.81C240.065 142.81 239.617 142.362 239.617 141.818C239.617 141.258 240.065 140.826 240.609 140.826C241.153 140.826 241.601 141.258 241.601 141.818C241.601 142.362 241.153 142.81 240.609 142.81ZM239.873 152.49V144.666H241.377V152.49H239.873ZM244.745 152.49H243.241V144.666H244.601L244.761 145.866C245.257 144.97 246.249 144.442 247.353 144.442C249.417 144.442 250.361 145.706 250.361 147.706V152.49H248.857V148.042C248.857 146.458 248.121 145.818 246.969 145.818C245.561 145.818 244.745 146.826 244.745 148.346V152.49ZM251.628 148.378C251.628 146.17 253.052 144.442 255.324 144.442C256.588 144.442 257.564 145.018 258.06 145.994L258.172 144.666H259.516V152.17C259.516 154.634 257.996 156.202 255.596 156.202C253.468 156.202 252.012 155.002 251.724 153.018H253.228C253.42 154.17 254.284 154.842 255.596 154.842C257.068 154.842 258.028 153.882 258.028 152.394V150.826C257.516 151.738 256.492 152.282 255.26 152.282C253.036 152.282 251.628 150.57 251.628 148.378ZM253.132 148.346C253.132 149.818 254.044 150.97 255.516 150.97C257.036 150.97 257.964 149.882 257.964 148.346C257.964 146.842 257.068 145.754 255.532 145.754C254.028 145.754 253.132 146.906 253.132 148.346ZM267.629 152.49H266.125V145.93H264.589V144.666H266.125V142.218H267.629V144.666H269.165V145.93H267.629V152.49ZM274.675 144.602V145.978H274.003C272.579 145.978 271.699 146.842 271.699 148.346V152.49H270.195V144.682H271.603L271.699 145.866C272.019 145.05 272.803 144.506 273.875 144.506C274.147 144.506 274.371 144.538 274.675 144.602ZM278.86 152.682C276.556 152.682 274.972 151.018 274.972 148.586C274.972 146.138 276.524 144.442 278.796 144.442C281.02 144.442 282.476 145.978 282.476 148.298V148.858L276.428 148.874C276.54 150.522 277.404 151.434 278.892 151.434C280.06 151.434 280.828 150.954 281.084 150.058H282.492C282.108 151.738 280.796 152.682 278.86 152.682ZM278.796 145.706C277.484 145.706 276.652 146.49 276.46 147.866H280.972C280.972 146.57 280.124 145.706 278.796 145.706ZM285.34 152.49H283.836V144.666H285.196L285.356 145.866C285.852 144.97 286.844 144.442 287.948 144.442C290.012 144.442 290.956 145.706 290.956 147.706V152.49H289.452V148.042C289.452 146.458 288.716 145.818 287.564 145.818C286.156 145.818 285.34 146.826 285.34 148.346V152.49ZM295.855 152.682C293.583 152.682 292.207 150.986 292.207 148.602C292.207 146.202 293.599 144.442 295.919 144.442C297.119 144.442 298.127 144.97 298.655 145.93V140.714H300.143V152.49H298.799L298.671 151.066C298.159 152.138 297.103 152.682 295.855 152.682ZM296.159 151.322C297.695 151.322 298.639 150.186 298.639 148.554C298.639 146.954 297.695 145.802 296.159 145.802C294.623 145.802 293.727 146.954 293.727 148.554C293.727 150.17 294.623 151.322 296.159 151.322ZM301.353 150.218H302.793C302.793 151.018 303.401 151.498 304.393 151.498C305.449 151.498 306.057 151.066 306.057 150.346C306.057 149.818 305.801 149.498 304.985 149.29L303.609 148.97C302.217 148.634 301.561 147.946 301.561 146.794C301.561 145.354 302.777 144.442 304.505 144.442C306.217 144.442 307.337 145.402 307.369 146.89H305.929C305.897 146.106 305.369 145.61 304.457 145.61C303.513 145.61 302.985 146.026 302.985 146.746C302.985 147.274 303.369 147.626 304.137 147.818L305.513 148.154C306.841 148.474 307.497 149.082 307.497 150.25C307.497 151.738 306.217 152.682 304.361 152.682C302.521 152.682 301.353 151.706 301.353 150.218ZM309.871 152.682C309.247 152.682 308.719 152.17 308.719 151.562C308.719 150.938 309.247 150.426 309.871 150.426C310.479 150.426 311.007 150.938 311.007 151.562C311.007 152.17 310.479 152.682 309.871 152.682ZM313.973 152.682C313.349 152.682 312.821 152.17 312.821 151.562C312.821 150.938 313.349 150.426 313.973 150.426C314.581 150.426 315.109 150.938 315.109 151.562C315.109 152.17 314.581 152.682 313.973 152.682ZM318.075 152.682C317.451 152.682 316.923 152.17 316.923 151.562C316.923 150.938 317.451 150.426 318.075 150.426C318.683 150.426 319.211 150.938 319.211 151.562C319.211 152.17 318.683 152.682 318.075 152.682Z" fill="#8E8EA8"/>
<rect x="3.33008" y="194.49" width="10" height="10" rx="5" fill="white"/>
<circle cx="8.33008" cy="199.49" r="4" stroke="#5E56EF" stroke-width="2"/>
<path d="M8.33008 204.49V246.49" stroke="#E7E7EF" stroke-width="2"/>
<path d="M29.3301 190.99H436.33C440.472 190.99 443.83 194.348 443.83 198.49V238.49C443.83 242.632 440.472 245.99 436.33 245.99H29.3301C25.188 245.99 21.8301 242.632 21.8301 238.49V198.49C21.8301 194.348 25.1879 190.99 29.3301 190.99Z" fill="white"/>
<path d="M29.3301 190.99H436.33C440.472 190.99 443.83 194.348 443.83 198.49V238.49C443.83 242.632 440.472 245.99 436.33 245.99H29.3301C25.188 245.99 21.8301 242.632 21.8301 238.49V198.49C21.8301 194.348 25.1879 190.99 29.3301 190.99Z" stroke="#E7E7EF"/>
<rect x="37.3301" y="208.49" width="20" height="20" rx="4" fill="#00C16A"/>
<path d="M53.6582 223.177C53.6582 223.364 53.5841 223.543 53.4523 223.675C53.3204 223.807 53.1416 223.881 52.9551 223.881H41.7051C41.5186 223.881 41.3398 223.807 41.2079 223.675C41.076 223.543 41.002 223.364 41.002 223.177V213.802C41.002 213.616 41.076 213.437 41.2079 213.305C41.3398 213.173 41.5186 213.099 41.7051 213.099C41.8916 213.099 42.0704 213.173 42.2023 213.305C42.3341 213.437 42.4082 213.616 42.4082 213.802V219.603L44.9576 217.053C45.0229 216.988 45.1006 216.936 45.186 216.9C45.2715 216.865 45.3631 216.846 45.4557 216.846C45.5482 216.846 45.6398 216.865 45.7253 216.9C45.8108 216.936 45.8884 216.988 45.9537 217.053L47.3301 218.431L49.8496 215.912H49.2051C49.0186 215.912 48.8398 215.838 48.7079 215.706C48.576 215.574 48.502 215.395 48.502 215.209C48.502 215.022 48.576 214.843 48.7079 214.712C48.8398 214.58 49.0186 214.506 49.2051 214.506H51.5488C51.7353 214.506 51.9142 214.58 52.046 214.712C52.1779 214.843 52.252 215.022 52.252 215.209V217.552C52.252 217.739 52.1779 217.918 52.046 218.05C51.9142 218.182 51.7353 218.256 51.5488 218.256C51.3623 218.256 51.1835 218.182 51.0516 218.05C50.9198 217.918 50.8457 217.739 50.8457 217.552V216.908L47.8275 219.927C47.7622 219.992 47.6846 220.044 47.5991 220.08C47.5137 220.115 47.422 220.134 47.3295 220.134C47.237 220.134 47.1453 220.115 47.0599 220.08C46.9744 220.044 46.8968 219.992 46.8314 219.927L45.4551 218.549L42.4082 221.595V222.474H52.9551C53.1416 222.474 53.3204 222.548 53.4523 222.68C53.5841 222.812 53.6582 222.991 53.6582 223.177Z" fill="white"/>
<path d="M68.0021 216.042C68.0021 214.058 69.6021 212.714 71.9861 212.714C74.1941 212.714 75.6181 213.946 75.7461 215.946H74.1621C74.0821 214.794 73.2661 214.122 71.9701 214.122C70.5141 214.122 69.5701 214.858 69.5701 215.994C69.5701 216.922 70.0981 217.482 71.1861 217.738L73.0901 218.186C74.9781 218.618 75.9381 219.642 75.9381 221.274C75.9381 223.354 74.3221 224.682 71.8581 224.682C69.5061 224.682 67.9381 223.45 67.8421 221.466H69.4421C69.4741 222.57 70.4021 223.274 71.8581 223.274C73.3941 223.274 74.3701 222.554 74.3701 221.402C74.3701 220.49 73.8741 219.914 72.7701 219.658L70.8661 219.226C68.9781 218.794 68.0021 217.706 68.0021 216.042ZM79.6205 224.682C77.9405 224.682 76.9485 223.738 76.9485 222.314C76.9485 220.874 78.0205 219.978 79.8605 219.834L82.3245 219.642V219.418C82.3245 218.106 81.5405 217.642 80.4845 217.642C79.2205 217.642 78.5005 218.202 78.5005 219.146H77.1885C77.1885 217.514 78.5325 216.442 80.5485 216.442C82.4845 216.442 83.7965 217.466 83.7965 219.578V224.49H82.5165L82.3565 223.226C81.9565 224.122 80.8845 224.682 79.6205 224.682ZM80.0525 223.514C81.4765 223.514 82.3405 222.586 82.3405 221.114V220.698L80.3405 220.858C79.0125 220.986 78.4685 221.498 78.4685 222.266C78.4685 223.098 79.0765 223.514 80.0525 223.514ZM87.0953 224.49H85.5913V212.714H87.0953V224.49ZM92.3653 224.682C90.0613 224.682 88.4773 223.018 88.4773 220.586C88.4773 218.138 90.0293 216.442 92.3013 216.442C94.5253 216.442 95.9813 217.978 95.9813 220.298V220.858L89.9333 220.874C90.0453 222.522 90.9093 223.434 92.3973 223.434C93.5653 223.434 94.3333 222.954 94.5893 222.058H95.9973C95.6133 223.738 94.3013 224.682 92.3653 224.682ZM92.3013 217.706C90.9893 217.706 90.1573 218.49 89.9653 219.866H94.4773C94.4773 218.57 93.6293 217.706 92.3013 217.706ZM96.7012 222.218H98.1412C98.1412 223.018 98.7492 223.498 99.7412 223.498C100.797 223.498 101.405 223.066 101.405 222.346C101.405 221.818 101.149 221.498 100.333 221.29L98.9572 220.97C97.5652 220.634 96.9092 219.946 96.9092 218.794C96.9092 217.354 98.1252 216.442 99.8532 216.442C101.565 216.442 102.685 217.402 102.717 218.89H101.277C101.245 218.106 100.717 217.61 99.8052 217.61C98.8612 217.61 98.3332 218.026 98.3332 218.746C98.3332 219.274 98.7172 219.626 99.4852 219.818L100.861 220.154C102.189 220.474 102.845 221.082 102.845 222.25C102.845 223.738 101.565 224.682 99.7092 224.682C97.8692 224.682 96.7012 223.706 96.7012 222.218ZM108.984 224.49H107.352L111.576 212.922H113.32L117.56 224.49H115.912L114.872 221.61H110.008L108.984 224.49ZM112.248 215.418L110.488 220.25H114.408L112.632 215.418C112.552 215.194 112.472 214.922 112.44 214.746C112.408 214.906 112.328 215.178 112.248 215.418ZM117.885 220.378C117.885 218.17 119.309 216.442 121.581 216.442C122.845 216.442 123.821 217.018 124.317 217.994L124.429 216.666H125.773V224.17C125.773 226.634 124.253 228.202 121.853 228.202C119.725 228.202 118.269 227.002 117.981 225.018H119.485C119.677 226.17 120.541 226.842 121.853 226.842C123.325 226.842 124.285 225.882 124.285 224.394V222.826C123.773 223.738 122.749 224.282 121.517 224.282C119.293 224.282 117.885 222.57 117.885 220.378ZM119.389 220.346C119.389 221.818 120.301 222.97 121.773 222.97C123.293 222.97 124.221 221.882 124.221 220.346C124.221 218.842 123.325 217.754 121.789 217.754C120.285 217.754 119.389 218.906 119.389 220.346ZM131 224.682C128.696 224.682 127.112 223.018 127.112 220.586C127.112 218.138 128.664 216.442 130.936 216.442C133.16 216.442 134.616 217.978 134.616 220.298V220.858L128.568 220.874C128.68 222.522 129.544 223.434 131.032 223.434C132.2 223.434 132.968 222.954 133.224 222.058H134.632C134.248 223.738 132.936 224.682 131 224.682ZM130.936 217.706C129.624 217.706 128.792 218.49 128.6 219.866H133.112C133.112 218.57 132.264 217.706 130.936 217.706ZM137.48 224.49H135.976V216.666H137.336L137.496 217.866C137.992 216.97 138.984 216.442 140.088 216.442C142.152 216.442 143.096 217.706 143.096 219.706V224.49H141.592V220.042C141.592 218.458 140.856 217.818 139.704 217.818C138.296 217.818 137.48 218.826 137.48 220.346V224.49ZM147.067 224.49H145.563V217.93H144.027V216.666H145.563V214.218H147.067V216.666H148.603V217.93H147.067V224.49Z" fill="black"/>
<path d="M163.01 224.49L159.57 212.922H161.202L163.314 219.994C163.474 220.602 163.634 221.21 163.794 222.09C163.986 221.162 164.162 220.602 164.338 219.994L166.53 212.922H168.226L170.402 219.994C170.594 220.618 170.754 221.226 170.93 222.09C171.122 221.114 171.282 220.522 171.442 220.01L173.57 212.922H175.17L171.682 224.49H170.178L167.378 215.338L164.546 224.49H163.01ZM180.031 216.602V217.978H179.359C177.935 217.978 177.055 218.842 177.055 220.346V224.49H175.551V216.682H176.959L177.055 217.866C177.375 217.05 178.159 216.506 179.231 216.506C179.503 216.506 179.727 216.538 180.031 216.602ZM181.858 214.81C181.314 214.81 180.866 214.362 180.866 213.818C180.866 213.258 181.314 212.826 181.858 212.826C182.402 212.826 182.85 213.258 182.85 213.818C182.85 214.362 182.402 214.81 181.858 214.81ZM181.122 224.49V216.666H182.626V224.49H181.122ZM186.697 224.49H185.193V217.93H183.657V216.666H185.193V214.218H186.697V216.666H188.233V217.93H186.697V224.49ZM189.999 214.81C189.455 214.81 189.007 214.362 189.007 213.818C189.007 213.258 189.455 212.826 189.999 212.826C190.543 212.826 190.991 213.258 190.991 213.818C190.991 214.362 190.543 214.81 189.999 214.81ZM189.263 224.49V216.666H190.767V224.49H189.263ZM194.135 224.49H192.631V216.666H193.991L194.151 217.866C194.647 216.97 195.639 216.442 196.743 216.442C198.807 216.442 199.751 217.706 199.751 219.706V224.49H198.247V220.042C198.247 218.458 197.511 217.818 196.359 217.818C194.951 217.818 194.135 218.826 194.135 220.346V224.49ZM201.018 220.378C201.018 218.17 202.442 216.442 204.714 216.442C205.978 216.442 206.954 217.018 207.45 217.994L207.562 216.666H208.906V224.17C208.906 226.634 207.386 228.202 204.986 228.202C202.858 228.202 201.402 227.002 201.114 225.018H202.618C202.81 226.17 203.674 226.842 204.986 226.842C206.458 226.842 207.418 225.882 207.418 224.394V222.826C206.906 223.738 205.882 224.282 204.65 224.282C202.426 224.282 201.018 222.57 201.018 220.378ZM202.522 220.346C202.522 221.818 203.434 222.97 204.906 222.97C206.426 222.97 207.354 221.882 207.354 220.346C207.354 218.842 206.458 217.754 204.922 217.754C203.418 217.754 202.522 218.906 202.522 220.346ZM214.299 220.57C214.299 218.154 216.027 216.458 218.379 216.458C220.715 216.458 222.443 218.154 222.443 220.57C222.443 222.986 220.715 224.682 218.379 224.682C216.027 224.682 214.299 222.986 214.299 220.57ZM215.819 220.57C215.819 222.202 216.859 223.338 218.379 223.338C219.883 223.338 220.939 222.202 220.939 220.57C220.939 218.938 219.883 217.802 218.379 217.802C216.859 217.802 215.819 218.938 215.819 220.57ZM229.009 216.666H230.497V224.49H229.153L228.993 223.306C228.545 224.122 227.505 224.682 226.353 224.682C224.529 224.682 223.505 223.45 223.505 221.53V216.666H225.009V221.034C225.009 222.714 225.729 223.354 226.881 223.354C228.257 223.354 229.009 222.474 229.009 220.794V216.666ZM234.567 224.49H233.063V217.93H231.527V216.666H233.063V214.218H234.567V216.666H236.103V217.93H234.567V224.49ZM241.612 216.602V217.978H240.94C239.516 217.978 238.636 218.842 238.636 220.346V224.49H237.132V216.682H238.54L238.636 217.866C238.956 217.05 239.74 216.506 240.812 216.506C241.084 216.506 241.308 216.538 241.612 216.602ZM245.798 224.682C243.494 224.682 241.91 223.018 241.91 220.586C241.91 218.138 243.462 216.442 245.734 216.442C247.958 216.442 249.414 217.978 249.414 220.298V220.858L243.366 220.874C243.478 222.522 244.342 223.434 245.83 223.434C246.998 223.434 247.766 222.954 248.022 222.058H249.43C249.046 223.738 247.734 224.682 245.798 224.682ZM245.734 217.706C244.422 217.706 243.59 218.49 243.398 219.866H247.91C247.91 218.57 247.062 217.706 245.734 217.706ZM252.984 224.682C251.304 224.682 250.312 223.738 250.312 222.314C250.312 220.874 251.384 219.978 253.224 219.834L255.688 219.642V219.418C255.688 218.106 254.904 217.642 253.848 217.642C252.584 217.642 251.864 218.202 251.864 219.146H250.552C250.552 217.514 251.896 216.442 253.912 216.442C255.848 216.442 257.16 217.466 257.16 219.578V224.49H255.88L255.72 223.226C255.32 224.122 254.248 224.682 252.984 224.682ZM253.416 223.514C254.84 223.514 255.704 222.586 255.704 221.114V220.698L253.704 220.858C252.376 220.986 251.832 221.498 251.832 222.266C251.832 223.098 252.44 223.514 253.416 223.514ZM258.41 220.586C258.41 218.138 259.962 216.442 262.25 216.442C264.218 216.442 265.594 217.562 265.866 219.306H264.362C264.106 218.314 263.306 217.786 262.298 217.786C260.874 217.786 259.898 218.874 259.898 220.57C259.898 222.25 260.81 223.338 262.234 223.338C263.306 223.338 264.106 222.778 264.378 221.85H265.882C265.578 223.546 264.122 224.682 262.234 224.682C259.93 224.682 258.41 223.05 258.41 220.586ZM268.653 224.474H267.149V212.714H268.653V217.866C269.149 217.018 270.093 216.442 271.309 216.442C273.309 216.442 274.269 217.706 274.269 219.706V224.49H272.765V220.042C272.765 218.458 272.013 217.818 270.893 217.818C269.437 217.818 268.653 218.874 268.653 220.218V224.474ZM277.152 224.682C276.528 224.682 276 224.17 276 223.562C276 222.938 276.528 222.426 277.152 222.426C277.76 222.426 278.288 222.938 278.288 223.562C278.288 224.17 277.76 224.682 277.152 224.682ZM281.254 224.682C280.63 224.682 280.102 224.17 280.102 223.562C280.102 222.938 280.63 222.426 281.254 222.426C281.862 222.426 282.39 222.938 282.39 223.562C282.39 224.17 281.862 224.682 281.254 224.682ZM285.356 224.682C284.732 224.682 284.204 224.17 284.204 223.562C284.204 222.938 284.732 222.426 285.356 222.426C285.964 222.426 286.492 222.938 286.492 223.562C286.492 224.17 285.964 224.682 285.356 224.682Z" fill="#8E8EA8"/>
</g>
<defs>
<linearGradient id="paint0_linear_114_666" x1="37.3301" y1="64.49" x2="57.3301" y2="84.49" gradientUnits="userSpaceOnUse">
<stop stop-color="white"/>
<stop offset="1" stop-color="white" stop-opacity="0"/>
</linearGradient>
<clipPath id="clip0_114_666">
<rect width="364" height="292" fill="white"/>
</clipPath>
</defs>
</svg>
